<svg xmlns="http://www.w3.org/2000/svg" viewBox="0 0 960 540" width="960" height="540">
<defs>
<linearGradient id="sky" x1="0" y1="0" x2="0" y2="1">
<stop offset="0%" stop-color="#7ec0f2">
</stop>
<stop offset="100%" stop-color="#4a90d9">
</stop>
</linearGradient>
<linearGradient id="vig" x1="0" y1="0" x2="0" y2="1">
<stop offset="0%" stop-color="rgba(5,8,20,0)">
</stop>
<stop offset="62%" stop-color="rgba(5,8,20,0)">
</stop>
<stop offset="100%" stop-color="rgba(5,8,20,0.30)">
</stop>
</linearGradient>
</defs>
<style>
@keyframes twinkle{0%,100%{opacity:.3}50%{opacity:1}}
@keyframes glow{0%,100%{opacity:.3}50%{opacity:.7}}
@keyframes neon{0%,100%{opacity:.3}50%{opacity:.7}}
@keyframes infantMobile{0%{transform:rotate(0)}100%{transform:rotate(360deg)}}
.animate-twinkle{animation:twinkle 3s ease-in-out infinite}
.animate-glow{animation:glow 2s ease-in-out infinite}
.animate-neon{animation:neon 3s ease-in-out infinite}
.animate-infant-mobile{animation:infantMobile 12s linear infinite;transform-origin:480px 180px}
</style>
<rect width="960" height="540" fill="url(#sky)">
</rect>
<g transform="translate(0 140)">
<g>
<defs>
<linearGradient id="g153-sky" x1="0" y1="0" x2="0" y2="1">
<stop offset="0%" stop-color="#4a90d9">
</stop>
<stop offset="60%" stop-color="#87CEEB">
</stop>
<stop offset="100%" stop-color="#b8e6b8">
</stop>
</linearGradient>
<radialGradient id="g153-sun">
<stop offset="0%" stop-color="rgba(255,255,200,0.9)">
</stop>
<stop offset="60%" stop-color="rgba(255,240,180,0.3)">
</stop>
<stop offset="100%" stop-color="rgba(255,220,150,0)">
</stop>
</radialGradient>
</defs>
<rect x="0" y="0" width="960" height="400" fill="url(#g153-sky)">
</rect>
<circle cx="780" cy="70" r="60" fill="url(#g153-sun)">
</circle>
<circle cx="780" cy="70" r="28" fill="rgba(255,255,220,0.9)">
</circle>
<g transform="translate(100,40) scale(1.2)" opacity="0.6">
<animateTransform attributeName="transform" type="translate" from="60 40" to="220 40" dur="20s" repeatCount="indefinite" additive="sum">
</animateTransform>
<circle cx="0" cy="0" r="20" fill="white">
</circle>
<circle cx="22" cy="-8" r="28" fill="white">
</circle>
<circle cx="45" cy="-2" r="22" fill="white">
</circle>
<circle cx="18" cy="5" r="18" fill="white">
</circle>
</g>
<g transform="translate(350,70) scale(0.8)" opacity="0.5">
<animateTransform attributeName="transform" type="translate" from="310 70" to="470 70" dur="16s" repeatCount="indefinite" additive="sum">
</animateTransform>
<circle cx="0" cy="0" r="20" fill="white">
</circle>
<circle cx="22" cy="-8" r="28" fill="white">
</circle>
<circle cx="45" cy="-2" r="22" fill="white">
</circle>
<circle cx="18" cy="5" r="18" fill="white">
</circle>
</g>
<g transform="translate(600,30) scale(1)" opacity="0.55">
<animateTransform attributeName="transform" type="translate" from="560 30" to="720 30" dur="22s" repeatCount="indefinite" additive="sum">
</animateTransform>
<circle cx="0" cy="0" r="20" fill="white">
</circle>
<circle cx="22" cy="-8" r="28" fill="white">
</circle>
<circle cx="45" cy="-2" r="22" fill="white">
</circle>
<circle cx="18" cy="5" r="18" fill="white">
</circle>
</g>
<path d="M0,300 Q100,200 200,260 Q300,190 400,250 Q500,210 600,240 Q700,180 800,230 Q880,200 960,250 L960,400 L0,400Z" fill="#6aaa50" opacity="0.5">
</path>
<path d="M0,320 Q200,260 400,300 Q600,270 800,290 Q900,280 960,300 L960,400 L0,400Z" fill="#5a9a40" opacity="0.6">
</path>
<g transform="translate(80,210) scale(1)">
<rect x="12" y="40" width="14" height="50" fill="#6b4c3b" rx="3">
</rect>
<circle cx="19" cy="25" r="38" fill="#5a8a3c">
</circle>
<circle cx="0" cy="35" r="28" fill="#4a7a2c">
</circle>
<circle cx="38" cy="32" r="30" fill="#6a9a4c">
</circle>
</g>
<g transform="translate(720,220) scale(0.9)">
<rect x="12" y="40" width="14" height="50" fill="#6b4c3b" rx="3">
</rect>
<circle cx="19" cy="25" r="38" fill="#5a8a3c">
</circle>
<circle cx="0" cy="35" r="28" fill="#4a7a2c">
</circle>
<circle cx="38" cy="32" r="30" fill="#6a9a4c">
</circle>
</g>
<g transform="translate(820,230) scale(0.7)">
<rect x="12" y="40" width="14" height="50" fill="#6b4c3b" rx="3">
</rect>
<circle cx="19" cy="25" r="38" fill="#5a8a3c">
</circle>
<circle cx="0" cy="35" r="28" fill="#4a7a2c">
</circle>
<circle cx="38" cy="32" r="30" fill="#6a9a4c">
</circle>
</g>
<rect x="0" y="300" width="960" height="100" fill="#7CB342">
</rect>
<rect x="0" y="300" width="960" height="8" fill="#8BC34A">
</rect>
<g>
<defs>
<radialGradient id="g154-sh" cx="50%" cy="50%" r="50%">
<stop offset="0%" stop-color="rgba(25,20,15,0.14)">
</stop>
<stop offset="100%" stop-color="rgba(25,20,15,0)">
</stop>
</radialGradient>
</defs>
<ellipse cx="95" cy="304" rx="42" ry="6" fill="url(#g154-sh)">
</ellipse>
</g>
<g>
<defs>
<radialGradient id="g155-sh" cx="50%" cy="50%" r="50%">
<stop offset="0%" stop-color="rgba(25,20,15,0.13)">
</stop>
<stop offset="100%" stop-color="rgba(25,20,15,0)">
</stop>
</radialGradient>
</defs>
<ellipse cx="742" cy="312" rx="40" ry="6" fill="url(#g155-sh)">
</ellipse>
</g>
<g>
<defs>
<radialGradient id="g156-sh" cx="50%" cy="50%" r="50%">
<stop offset="0%" stop-color="rgba(25,20,15,0.12)">
</stop>
<stop offset="100%" stop-color="rgba(25,20,15,0)">
</stop>
</radialGradient>
</defs>
<ellipse cx="838" cy="318" rx="34" ry="5" fill="url(#g156-sh)">
</ellipse>
</g>
<g>
<defs>
<radialGradient id="g157-sh" cx="50%" cy="50%" r="50%">
<stop offset="0%" stop-color="rgba(25,20,15,0.14)">
</stop>
<stop offset="100%" stop-color="rgba(25,20,15,0)">
</stop>
</radialGradient>
</defs>
<ellipse cx="330" cy="304" rx="46" ry="6" fill="url(#g157-sh)">
</ellipse>
</g>
<g>
<defs>
<radialGradient id="g158-sh" cx="50%" cy="50%" r="50%">
<stop offset="0%" stop-color="rgba(25,20,15,0.14)">
</stop>
<stop offset="100%" stop-color="rgba(25,20,15,0)">
</stop>
</radialGradient>
</defs>
<ellipse cx="585" cy="324" rx="46" ry="6" fill="url(#g158-sh)">
</ellipse>
</g>
<g transform="translate(300, 230)">
<rect x="0" y="20" width="6" height="60" fill="#e8a040" rx="2">
</rect>
<line x1="3" y1="20" x2="55" y2="80" stroke="#e8a040" stroke-width="5" stroke-linecap="round">
</line>
<rect x="50" y="70" width="40" height="8" fill="#f0b050" rx="4">
</rect>
</g>
<g transform="translate(550, 240)">
<rect x="20" y="0" width="5" height="70" fill="#8B4513">
</rect>
<rect x="55" y="0" width="5" height="70" fill="#8B4513">
</rect>
<rect x="15" y="0" width="50" height="5" fill="#8B4513" rx="2">
</rect>
<line x1="20" y1="65" x2="20" y2="80" stroke="#666" stroke-width="1.5">
</line>
<line x1="60" y1="65" x2="60" y2="80" stroke="#666" stroke-width="1.5">
</line>
<rect x="10" y="78" width="60" height="5" fill="#a0522d" rx="2">
</rect>
</g>
<g transform="translate(200,150)">
<animateTransform attributeName="transform" type="translate" values="200,150; 230,130; 260,150; 230,170; 200,150" dur="6s" repeatCount="indefinite" begin="0s">
</animateTransform>
<ellipse cx="-4" cy="0" rx="5" ry="3" fill="rgba(255,180,100,0.5)" transform="rotate(-20)">
</ellipse>
<ellipse cx="4" cy="0" rx="5" ry="3" fill="rgba(255,180,100,0.5)" transform="rotate(20)">
</ellipse>
<circle cx="0" cy="0" r="1.5" fill="rgba(100,60,20,0.6)">
</circle>
</g>
<g transform="translate(650,120)">
<animateTransform attributeName="transform" type="translate" values="650,120; 680,100; 710,120; 680,140; 650,120" dur="6s" repeatCount="indefinite" begin="3s">
</animateTransform>
<ellipse cx="-4" cy="0" rx="5" ry="3" fill="rgba(255,180,100,0.5)" transform="rotate(-20)">
</ellipse>
<ellipse cx="4" cy="0" rx="5" ry="3" fill="rgba(255,180,100,0.5)" transform="rotate(20)">
</ellipse>
<circle cx="0" cy="0" r="1.5" fill="rgba(100,60,20,0.6)">
</circle>
</g>
<g transform="translate(400,80)">
<animateTransform attributeName="transform" type="translate" from="400 80" to="200 40" dur="8s" repeatCount="indefinite" begin="0s">
</animateTransform>
<path d="M0,0 Q6,-8 12,-2" stroke="rgba(40,40,60,0.5)" stroke-width="2" fill="none">
</path>
<path d="M12,-2 Q18,-8 24,0" stroke="rgba(40,40,60,0.5)" stroke-width="2" fill="none">
</path>
</g>
<g transform="translate(500,55)">
<animateTransform attributeName="transform" type="translate" from="500 55" to="300 15" dur="8s" repeatCount="indefinite" begin="4s">
</animateTransform>
<path d="M0,0 Q6,-8 12,-2" stroke="rgba(40,40,60,0.5)" stroke-width="2" fill="none">
</path>
<path d="M12,-2 Q18,-8 24,0" stroke="rgba(40,40,60,0.5)" stroke-width="2" fill="none">
</path>
</g>
<g transform="translate(300,65)">
<animateTransform attributeName="transform" type="translate" from="300 65" to="100 25" dur="8s" repeatCount="indefinite" begin="2s">
</animateTransform>
<path d="M0,0 Q6,-8 12,-2" stroke="rgba(40,40,60,0.5)" stroke-width="2" fill="none">
</path>
<path d="M12,-2 Q18,-8 24,0" stroke="rgba(40,40,60,0.5)" stroke-width="2" fill="none">
</path>
</g>
<g transform="translate(150,310)">
<line x1="0" y1="0" x2="0" y2="8" stroke="#5a8a3a" stroke-width="1.5">
</line>
<ellipse cx="0" cy="-3" rx="2" ry="4" fill="#ffb0c0" transform="rotate(0)" opacity="0.8">
</ellipse>
<ellipse cx="0" cy="-3" rx="2" ry="4" fill="#ffb0c0" transform="rotate(72)" opacity="0.8">
</ellipse>
<ellipse cx="0" cy="-3" rx="2" ry="4" fill="#ffb0c0" transform="rotate(144)" opacity="0.8">
</ellipse>
<ellipse cx="0" cy="-3" rx="2" ry="4" fill="#ffb0c0" transform="rotate(216)" opacity="0.8">
</ellipse>
<ellipse cx="0" cy="-3" rx="2" ry="4" fill="#ffb0c0" transform="rotate(288)" opacity="0.8">
</ellipse>
<circle cx="0" cy="0" r="2" fill="#ffe060">
</circle>
</g>
<g transform="translate(250,325)">
<line x1="0" y1="0" x2="0" y2="8" stroke="#5a8a3a" stroke-width="1.5">
</line>
<ellipse cx="0" cy="-3" rx="2" ry="4" fill="#ffb0c0" transform="rotate(0)" opacity="0.8">
</ellipse>
<ellipse cx="0" cy="-3" rx="2" ry="4" fill="#ffb0c0" transform="rotate(72)" opacity="0.8">
</ellipse>
<ellipse cx="0" cy="-3" rx="2" ry="4" fill="#ffb0c0" transform="rotate(144)" opacity="0.8">
</ellipse>
<ellipse cx="0" cy="-3" rx="2" ry="4" fill="#ffb0c0" transform="rotate(216)" opacity="0.8">
</ellipse>
<ellipse cx="0" cy="-3" rx="2" ry="4" fill="#ffb0c0" transform="rotate(288)" opacity="0.8">
</ellipse>
<circle cx="0" cy="0" r="2" fill="#ffe060">
</circle>
</g>
<g transform="translate(680,315)">
<line x1="0" y1="0" x2="0" y2="8" stroke="#5a8a3a" stroke-width="1.5">
</line>
<ellipse cx="0" cy="-3" rx="2" ry="4" fill="#ffb0c0" transform="rotate(0)" opacity="0.8">
</ellipse>
<ellipse cx="0" cy="-3" rx="2" ry="4" fill="#ffb0c0" transform="rotate(72)" opacity="0.8">
</ellipse>
<ellipse cx="0" cy="-3" rx="2" ry="4" fill="#ffb0c0" transform="rotate(144)" opacity="0.8">
</ellipse>
<ellipse cx="0" cy="-3" rx="2" ry="4" fill="#ffb0c0" transform="rotate(216)" opacity="0.8">
</ellipse>
<ellipse cx="0" cy="-3" rx="2" ry="4" fill="#ffb0c0" transform="rotate(288)" opacity="0.8">
</ellipse>
<circle cx="0" cy="0" r="2" fill="#ffe060">
</circle>
</g>
<g transform="translate(780,330)">
<line x1="0" y1="0" x2="0" y2="8" stroke="#5a8a3a" stroke-width="1.5">
</line>
<ellipse cx="0" cy="-3" rx="2" ry="4" fill="#ffb0c0" transform="rotate(0)" opacity="0.8">
</ellipse>
<ellipse cx="0" cy="-3" rx="2" ry="4" fill="#ffb0c0" transform="rotate(72)" opacity="0.8">
</ellipse>
<ellipse cx="0" cy="-3" rx="2" ry="4" fill="#ffb0c0" transform="rotate(144)" opacity="0.8">
</ellipse>
<ellipse cx="0" cy="-3" rx="2" ry="4" fill="#ffb0c0" transform="rotate(216)" opacity="0.8">
</ellipse>
<ellipse cx="0" cy="-3" rx="2" ry="4" fill="#ffb0c0" transform="rotate(288)" opacity="0.8">
</ellipse>
<circle cx="0" cy="0" r="2" fill="#ffe060">
</circle>
</g>
<g transform="translate(880,320)">
<line x1="0" y1="0" x2="0" y2="8" stroke="#5a8a3a" stroke-width="1.5">
</line>
<ellipse cx="0" cy="-3" rx="2" ry="4" fill="#ffb0c0" transform="rotate(0)" opacity="0.8">
</ellipse>
<ellipse cx="0" cy="-3" rx="2" ry="4" fill="#ffb0c0" transform="rotate(72)" opacity="0.8">
</ellipse>
<ellipse cx="0" cy="-3" rx="2" ry="4" fill="#ffb0c0" transform="rotate(144)" opacity="0.8">
</ellipse>
<ellipse cx="0" cy="-3" rx="2" ry="4" fill="#ffb0c0" transform="rotate(216)" opacity="0.8">
</ellipse>
<ellipse cx="0" cy="-3" rx="2" ry="4" fill="#ffb0c0" transform="rotate(288)" opacity="0.8">
</ellipse>
<circle cx="0" cy="0" r="2" fill="#ffe060">
</circle>
</g>
</g>
<g opacity="0.8">
<g>
<path d="M60 350 h840" stroke="rgba(251,146,60,0.3)" stroke-width="4">
</path>
<path d="M60 370 h840" stroke="rgba(251,146,60,0.22)" stroke-width="4">
</path>
<path d="M60 350 q-40 10 -40 20 q0 10 40 20" fill="none" stroke="rgba(251,146,60,0.3)" stroke-width="4">
</path>
<path d="M900 350 q40 10 40 20 q0 10 -40 20" fill="none" stroke="rgba(251,146,60,0.3)" stroke-width="4">
</path>
<rect x="380" y="50" width="200" height="80" rx="8" fill="rgba(251,146,60,0.08)" stroke="rgba(251,146,60,0.32)" stroke-width="3">
</rect>
<rect x="400" y="68" width="52" height="40" rx="4" fill="rgba(251,146,60,0.14)">
</rect>
<rect x="508" y="68" width="52" height="40" rx="4" fill="rgba(251,146,60,0.14)">
</rect>
<rect x="408" y="78" width="16" height="8" rx="2" fill="rgba(251,146,60,0.32)">
</rect>
<rect x="428" y="78" width="16" height="8" rx="2" fill="rgba(251,146,60,0.28)">
</rect>
<rect x="448" y="92" width="16" height="8" rx="2" fill="rgba(251,146,60,0.24)">
</rect>
<rect x="516" y="92" width="16" height="8" rx="2" fill="rgba(251,146,60,0.32)">
</rect>
<rect x="536" y="78" width="16" height="8" rx="2" fill="rgba(251,146,60,0.28)">
</rect>
<line x1="480" y1="60" x2="480" y2="130" stroke="rgba(251,146,60,0.28)" stroke-width="3">
</line>
<line x1="830" y1="80" x2="830" y2="350" stroke="rgba(251,146,60,0.32)" stroke-width="5">
</line>
<rect x="830" y="80" width="120" height="14" rx="6" fill="rgba(251,146,60,0.16)" stroke="rgba(251,146,60,0.34)" stroke-width="3">
</rect>
<path d="M842 94 l64 36 l12 -20 z" fill="rgba(251,146,60,0.08)" stroke="rgba(251,146,60,0.34)" stroke-width="3">
</path>
<ellipse cx="918" cy="110" rx="36" ry="9" fill="none" stroke="rgba(251,146,60,0.34)" stroke-width="3">
</ellipse>
<g>
<defs>
<radialGradient id="cg39-sh" cx="50%" cy="50%" r="50%">
<stop offset="0%" stop-color="rgba(251,146,60,0.18)">
</stop>
<stop offset="100%" stop-color="rgba(251,146,60,0)">
</stop>
</radialGradient>
</defs>
<ellipse cx="260" cy="332" rx="52" ry="8" fill="url(#cg39-sh)">
</ellipse>
</g>
<circle cx="260" cy="300" r="30" fill="rgba(251,146,60,0.12)" stroke="rgba(251,146,60,0.36)" stroke-width="3">
</circle>
<path d="M260 270 l14 10 l-5 17 l-18 0 l-5 -17 z" fill="none" stroke="rgba(251,146,60,0.3)" stroke-width="2.5">
</path>
<path d="M260 270 l-12 16 l18 0" fill="none" stroke="rgba(251,146,60,0.28)" stroke-width="2.5">
</path>
<path d="M260 300 l-16 10 l6 14" fill="none" stroke="rgba(251,146,60,0.28)" stroke-width="2.5">
</path>
<path d="M260 300 l16 10 l-6 14" fill="none" stroke="rgba(251,146,60,0.28)" stroke-width="2.5">
</path>
<line x1="380" y1="330" x2="520" y2="330" stroke="rgba(251,146,60,0.34)" stroke-width="6" stroke-linecap="round">
</line>
<rect x="368" y="318" width="18" height="24" rx="4" fill="rgba(251,146,60,0.22)">
</rect>
<rect x="514" y="318" width="18" height="24" rx="4" fill="rgba(251,146,60,0.22)">
</rect>
<rect x="392" y="322" width="14" height="16" rx="3" fill="rgba(251,146,60,0.16)">
</rect>
<rect x="494" y="322" width="14" height="16" rx="3" fill="rgba(251,146,60,0.16)">
</rect>
<g>
<defs>
<radialGradient id="cg40-sh" cx="50%" cy="50%" r="50%">
<stop offset="0%" stop-color="rgba(251,146,60,0.18)">
</stop>
<stop offset="100%" stop-color="rgba(251,146,60,0)">
</stop>
</radialGradient>
</defs>
<ellipse cx="680" cy="334" rx="40" ry="7" fill="url(#cg40-sh)">
</ellipse>
</g>
<path d="M650 330 l6 -56 q24 -18 48 0 l6 56 z" fill="rgba(251,146,60,0.12)" stroke="rgba(251,146,60,0.32)" stroke-width="3">
</path>
<rect x="654" y="330" width="52" height="8" rx="3" fill="rgba(251,146,60,0.18)">
</rect>
<rect x="668" y="338" width="24" height="16" rx="4" fill="rgba(251,146,60,0.14)">
</rect>
<path d="M660 292 q-14 -16 4 -24 q-2 14 12 14" fill="none" stroke="rgba(251,146,60,0.3)" stroke-width="3" stroke-linecap="round">
</path>
<path d="M700 292 q14 -16 -4 -24 q2 14 -12 14" fill="none" stroke="rgba(251,146,60,0.3)" stroke-width="3" stroke-linecap="round">
</path>
<path d="M140 60 q20 -16 40 0 q20 16 40 0" fill="none" stroke="rgba(251,146,60,0.3)" stroke-width="3">
</path>
<path d="M160 80 q16 -12 32 0 q16 12 32 0" fill="none" stroke="rgba(251,146,60,0.24)" stroke-width="3">
</path>
<path d="M780 180 q16 -12 32 0 q16 12 32 0" fill="none" stroke="rgba(251,146,60,0.26)" stroke-width="3">
</path>
</g>
</g>
</g>
<rect width="960" height="540" fill="url(#vig)">
</rect>
</svg>
