<svg xmlns="http://www.w3.org/2000/svg" viewBox="0 0 960 540" width="960" height="540">
<defs>
<linearGradient id="sky" x1="0" y1="0" x2="0" y2="1">
<stop offset="0%" stop-color="#ffd9a0">
</stop>
<stop offset="100%" stop-color="#f6ad55">
</stop>
</linearGradient>
<linearGradient id="vig" x1="0" y1="0" x2="0" y2="1">
<stop offset="0%" stop-color="rgba(5,8,20,0)">
</stop>
<stop offset="62%" stop-color="rgba(5,8,20,0)">
</stop>
<stop offset="100%" stop-color="rgba(5,8,20,0.30)">
</stop>
</linearGradient>
</defs>
<style>
@keyframes twinkle{0%,100%{opacity:.3}50%{opacity:1}}
@keyframes glow{0%,100%{opacity:.3}50%{opacity:.7}}
@keyframes neon{0%,100%{opacity:.3}50%{opacity:.7}}
@keyframes infantMobile{0%{transform:rotate(0)}100%{transform:rotate(360deg)}}
.animate-twinkle{animation:twinkle 3s ease-in-out infinite}
.animate-glow{animation:glow 2s ease-in-out infinite}
.animate-neon{animation:neon 3s ease-in-out infinite}
.animate-infant-mobile{animation:infantMobile 12s linear infinite;transform-origin:480px 180px}
</style>
<rect width="960" height="540" fill="url(#sky)">
</rect>
<g transform="translate(0 140)">
<g>
<defs>
<linearGradient id="g383-es" x1="0" y1="0" x2="0" y2="1">
<stop offset="0%" stop-color="#f6ad55">
</stop>
<stop offset="30%" stop-color="#fbd38d">
</stop>
<stop offset="60%" stop-color="#fefcbf">
</stop>
<stop offset="100%" stop-color="#e8e4d8">
</stop>
</linearGradient>
</defs>
<rect x="0" y="0" width="960" height="400" fill="url(#g383-es)">
</rect>
<circle cx="500" cy="180" r="70" fill="rgba(255,200,120,0.3)">
</circle>
<circle cx="500" cy="180" r="30" fill="rgba(255,220,150,0.5)">
</circle>
<g transform="translate(150,50) scale(1)" opacity="0.35">
<animateTransform attributeName="transform" type="translate" from="110 50" to="270 50" dur="18s" repeatCount="indefinite" additive="sum">
</animateTransform>
<circle cx="0" cy="0" r="20" fill="white">
</circle>
<circle cx="22" cy="-8" r="28" fill="white">
</circle>
<circle cx="45" cy="-2" r="22" fill="white">
</circle>
<circle cx="18" cy="5" r="18" fill="white">
</circle>
</g>
<g transform="translate(680,70) scale(0.7)" opacity="0.3">
<animateTransform attributeName="transform" type="translate" from="640 70" to="800 70" dur="22s" repeatCount="indefinite" additive="sum">
</animateTransform>
<circle cx="0" cy="0" r="20" fill="white">
</circle>
<circle cx="22" cy="-8" r="28" fill="white">
</circle>
<circle cx="45" cy="-2" r="22" fill="white">
</circle>
<circle cx="18" cy="5" r="18" fill="white">
</circle>
</g>
<path d="M0,250 Q80,200 160,230 Q240,190 320,220 Q400,195 480,225 Q560,200 640,215 Q720,190 800,220 Q880,200 960,225 L960,400 L0,400Z" fill="#c07840" opacity="0.4">
</path>
<g transform="translate(120, 210)">
<rect x="10" y="30" width="14" height="60" fill="#5a3a2a" rx="3">
</rect>
<circle cx="17" cy="20" r="35" fill="#d08040" opacity="0.7">
</circle>
<circle cx="0" cy="30" r="25" fill="#c07030" opacity="0.6">
</circle>
<circle cx="35" cy="28" r="28" fill="#e09050" opacity="0.65">
</circle>
</g>
<g transform="translate(680, 215)">
<rect x="10" y="35" width="12" height="50" fill="#5a3a2a" rx="3">
</rect>
<circle cx="16" cy="25" r="30" fill="#d08040" opacity="0.6">
</circle>
<circle cx="0" cy="32" r="22" fill="#c07030" opacity="0.55">
</circle>
<circle cx="33" cy="30" r="25" fill="#e09050" opacity="0.6">
</circle>
</g>
<g transform="translate(800, 220)">
<rect x="8" y="30" width="10" height="45" fill="#5a3a2a" rx="3">
</rect>
<circle cx="13" cy="20" r="28" fill="#d08040" opacity="0.6">
</circle>
<circle cx="-5" cy="28" r="20" fill="#c07030" opacity="0.5">
</circle>
</g>
<g transform="translate(420, 295)">
<rect x="0" y="10" width="110" height="9" rx="4" fill="#4a3020">
</rect>
<rect x="-3" y="5" width="5" height="22" fill="#3a2010">
</rect>
<rect x="108" y="5" width="5" height="22" fill="#3a2010">
</rect>
<rect x="5" y="0" width="100" height="7" rx="3" fill="#5a4030">
</rect>
</g>
<rect x="0" y="310" width="960" height="90" fill="#8a7a50">
</rect>
<rect x="0" y="310" width="960" height="5" fill="#9a8a60">
</rect>
<g>
<defs>
<radialGradient id="g384-sh" cx="50%" cy="50%" r="50%">
<stop offset="0%" stop-color="rgba(25,20,15,0.13)">
</stop>
<stop offset="100%" stop-color="rgba(25,20,15,0)">
</stop>
</radialGradient>
</defs>
<ellipse cx="475" cy="314" rx="72" ry="8" fill="url(#g384-sh)">
</ellipse>
</g>
<g>
<defs>
<radialGradient id="g385-sh" cx="50%" cy="50%" r="50%">
<stop offset="0%" stop-color="rgba(25,20,15,0.14)">
</stop>
<stop offset="100%" stop-color="rgba(25,20,15,0)">
</stop>
</radialGradient>
</defs>
<ellipse cx="137" cy="306" rx="42" ry="6" fill="url(#g385-sh)">
</ellipse>
</g>
<g>
<defs>
<radialGradient id="g386-sh" cx="50%" cy="50%" r="50%">
<stop offset="0%" stop-color="rgba(25,20,15,0.13)">
</stop>
<stop offset="100%" stop-color="rgba(25,20,15,0)">
</stop>
</radialGradient>
</defs>
<ellipse cx="697" cy="308" rx="38" ry="6" fill="url(#g386-sh)">
</ellipse>
</g>
<g>
<defs>
<radialGradient id="g387-sh" cx="50%" cy="50%" r="50%">
<stop offset="0%" stop-color="rgba(25,20,15,0.12)">
</stop>
<stop offset="100%" stop-color="rgba(25,20,15,0)">
</stop>
</radialGradient>
</defs>
<ellipse cx="813" cy="302" rx="34" ry="5" fill="url(#g387-sh)">
</ellipse>
</g>
<ellipse cx="100" cy="315" rx="4.135449524786763" ry="2" fill="rgba(194.33206231450967,104.96078329329853,33.25470100333408,0.5)" transform="rotate(-4.099560885283495,100,315)">
</ellipse>
<ellipse cx="200" cy="321.7317678784632" rx="5.170148424258174" ry="2" fill="rgba(203.46378143696722,106.10618890864262,45.08796217067473,0.5)" transform="rotate(-4.222054152337563,200,315)">
</ellipse>
<ellipse cx="300" cy="322.27437941460545" rx="4.476101583549779" ry="2" fill="rgba(234.06898241286893,101.527477648915,31.87940470384898,0.5)" transform="rotate(28.48635726397773,300,315)">
</ellipse>
<ellipse cx="350" cy="316.1289600644789" rx="5.729487101643346" ry="2" fill="rgba(218.17291820662768,100.11922213317706,30.067694510856825,0.5)" transform="rotate(2.11860205274116,350,315)">
</ellipse>
<ellipse cx="450" cy="308.94558003753656" rx="4.231394387425361" ry="2" fill="rgba(229.78527051030406,88.84117125075748,38.882800613529604,0.5)" transform="rotate(-13.891317464077567,450,315)">
</ellipse>
<ellipse cx="520" cy="307.3286058026949" rx="6.997864529740926" ry="2" fill="rgba(212.0614686131363,81.59724945450779,34.77739989603245,0.5)" transform="rotate(18.712255753123628,520,315)">
</ellipse>
<ellipse cx="600" cy="312.76467601440856" rx="4.781583436192817" ry="2" fill="rgba(212.74572889915774,109.62940747840327,38.0328090561012,0.5)" transform="rotate(28.409658436110362,600,315)">
</ellipse>
<ellipse cx="700" cy="320.2558927897503" rx="4.128990500561173" ry="2" fill="rgba(210.28725707130457,115.43489651644225,44.00850252009893,0.5)" transform="rotate(10.570928955921644,700,315)">
</ellipse>
<ellipse cx="750" cy="322.91486597298706" rx="6.266194416962226" ry="2" fill="rgba(181.97910826762404,115.69434727320458,43.97836535165198,0.5)" transform="rotate(-27.165489051773825,750,315)">
</ellipse>
<ellipse cx="830" cy="318.29694788193405" rx="4.0638422009436965" ry="2" fill="rgba(217.39533369156746,108.68883694322373,42.469128887628955,0.5)" transform="rotate(-18.133169860733833,830,315)">
</ellipse>
<g transform="translate(150,120)">
<animateTransform attributeName="transform" type="translate" values="150,120; 210,200; 180,260; 230,320" dur="5s" repeatCount="indefinite" begin="0s">
</animateTransform>
<ellipse cx="0" cy="0" rx="6.5" ry="3.25" fill="#d08040" opacity="0.6" transform="rotate(0)">
</ellipse>
</g>
<g transform="translate(350,100)">
<animateTransform attributeName="transform" type="translate" values="350,100; 410,180; 380,240; 430,300" dur="6.4s" repeatCount="indefinite" begin="2s">
</animateTransform>
<ellipse cx="0" cy="0" rx="5" ry="2.5" fill="#c07030" opacity="0.6" transform="rotate(80)">
</ellipse>
</g>
<g transform="translate(550,130)">
<animateTransform attributeName="transform" type="translate" values="550,130; 610,210; 580,270; 630,330" dur="7.8s" repeatCount="indefinite" begin="4s">
</animateTransform>
<ellipse cx="0" cy="0" rx="6" ry="3" fill="#e09050" opacity="0.6" transform="rotate(160)">
</ellipse>
</g>
<g transform="translate(700,110)">
<animateTransform attributeName="transform" type="translate" values="700,110; 760,190; 730,250; 780,310" dur="6.05s" repeatCount="indefinite" begin="1.5s">
</animateTransform>
<ellipse cx="0" cy="0" rx="4.5" ry="2.25" fill="#d08040" opacity="0.6" transform="rotate(60)">
</ellipse>
</g>
<g transform="translate(850,125)">
<animateTransform attributeName="transform" type="translate" values="850,125; 910,205; 880,265; 930,325" dur="7.449999999999999s" repeatCount="indefinite" begin="3.5s">
</animateTransform>
<ellipse cx="0" cy="0" rx="5.5" ry="2.75" fill="#c07030" opacity="0.6" transform="rotate(140)">
</ellipse>
</g>
<g transform="translate(200,60)">
<animateTransform attributeName="transform" type="translate" from="200 60" to="0 20" dur="8s" repeatCount="indefinite" begin="0s">
</animateTransform>
<path d="M0,0 Q6,-8 12,-2" stroke="rgba(40,40,60,0.5)" stroke-width="2" fill="none">
</path>
<path d="M12,-2 Q18,-8 24,0" stroke="rgba(40,40,60,0.5)" stroke-width="2" fill="none">
</path>
</g>
<g transform="translate(350,45)">
<animateTransform attributeName="transform" type="translate" from="350 45" to="150 5" dur="8s" repeatCount="indefinite" begin="2s">
</animateTransform>
<path d="M0,0 Q6,-8 12,-2" stroke="rgba(40,40,60,0.5)" stroke-width="2" fill="none">
</path>
<path d="M12,-2 Q18,-8 24,0" stroke="rgba(40,40,60,0.5)" stroke-width="2" fill="none">
</path>
</g>
<g transform="translate(500,55)">
<animateTransform attributeName="transform" type="translate" from="500 55" to="300 15" dur="8s" repeatCount="indefinite" begin="4s">
</animateTransform>
<path d="M0,0 Q6,-8 12,-2" stroke="rgba(40,40,60,0.5)" stroke-width="2" fill="none">
</path>
<path d="M12,-2 Q18,-8 24,0" stroke="rgba(40,40,60,0.5)" stroke-width="2" fill="none">
</path>
</g>
</g>
<g opacity="0.8">
<g>
<g>
<rect x="0" y="330" width="960" height="68" fill="rgba(74,222,128,0.08)">
</rect>
<rect x="0" y="330" width="960" height="4" fill="rgba(74,222,128,0.14)">
</rect>
</g>
<rect x="780" y="60" width="52" height="130" rx="12" fill="rgba(74,222,128,0.16)" stroke="rgba(74,222,128,0.36)" stroke-width="3">
</rect>
<rect x="741" y="99" width="130" height="52" rx="12" fill="rgba(74,222,128,0.16)" stroke="rgba(74,222,128,0.36)" stroke-width="3">
</rect>
<g>
<defs>
<radialGradient id="cg112-sh" cx="50%" cy="50%" r="50%">
<stop offset="0%" stop-color="rgba(74,222,128,0.18)">
</stop>
<stop offset="100%" stop-color="rgba(74,222,128,0)">
</stop>
</radialGradient>
</defs>
<ellipse cx="280" cy="324" rx="170" ry="12" fill="url(#cg112-sh)">
</ellipse>
</g>
<rect x="70" y="240" width="230" height="72" rx="14" fill="rgba(74,222,128,0.12)" stroke="rgba(74,222,128,0.3)" stroke-width="3">
</rect>
<rect x="62" y="210" width="26" height="110" rx="8" fill="rgba(74,222,128,0.15)">
</rect>
<rect x="282" y="210" width="26" height="110" rx="8" fill="rgba(74,222,128,0.13)">
</rect>
<rect x="88" y="222" width="72" height="20" rx="9" fill="rgba(74,222,128,0.22)">
</rect>
<path d="M120 240 q80 -14 160 6 l0 26 q-80 -14 -160 6 z" fill="rgba(74,222,128,0.16)">
</path>
<path d="M120 252 q80 -12 160 4" fill="none" stroke="rgba(74,222,128,0.3)" stroke-width="2.5" stroke-linecap="round">
</path>
<line x1="340" y1="120" x2="340" y2="330" stroke="rgba(74,222,128,0.32)" stroke-width="4" stroke-linecap="round">
</line>
<line x1="312" y1="122" x2="368" y2="122" stroke="rgba(74,222,128,0.3)" stroke-width="4" stroke-linecap="round">
</line>
<rect x="348" y="130" width="26" height="44" rx="6" fill="rgba(74,222,128,0.14)" stroke="rgba(74,222,128,0.3)" stroke-width="2.5">
</rect>
<path d="M352 176 q-2 50 4 92" fill="none" stroke="rgba(74,222,128,0.3)" stroke-width="2">
</path>
<rect x="660" y="160" width="150" height="96" rx="8" fill="rgba(74,222,128,0.1)" stroke="rgba(74,222,128,0.32)" stroke-width="3">
</rect>
<rect x="670" y="170" width="130" height="72" rx="4" fill="rgba(74,222,128,0.05)">
</rect>
<path d="M676 206 l10 -14 10 10 12 -18 12 14 14 -22 12 18 12 -12 12 16 14 -20 12 18" fill="none" stroke="rgba(74,222,128,0.45)" stroke-width="3" stroke-linecap="round" stroke-linejoin="round">
</path>
<rect x="690" y="262" width="18" height="10" rx="3" fill="rgba(74,222,128,0.24)">
</rect>
<rect x="762" y="262" width="18" height="10" rx="3" fill="rgba(74,222,128,0.24)">
</rect>
<line x1="660" y1="256" x2="810" y2="256" stroke="rgba(74,222,128,0.28)" stroke-width="3">
</line>
<rect x="620" y="280" width="40" height="24" rx="5" fill="rgba(74,222,128,0.12)" stroke="rgba(74,222,128,0.28)" stroke-width="2.5">
</rect>
<rect x="600" y="310" width="40" height="24" rx="5" fill="rgba(74,222,128,0.1)" stroke="rgba(74,222,128,0.26)" stroke-width="2.5">
</rect>
<rect x="420" y="250" width="26" height="40" rx="6" fill="rgba(74,222,128,0.14)" stroke="rgba(74,222,128,0.3)" stroke-width="2.5">
</rect>
<rect x="423" y="242" width="20" height="12" rx="4" fill="rgba(74,222,128,0.2)">
</rect>
<rect x="460" y="262" width="22" height="32" rx="5" fill="rgba(74,222,128,0.12)" stroke="rgba(74,222,128,0.28)" stroke-width="2.5">
</rect>
<rect x="505" y="270" width="30" height="14" rx="5" fill="rgba(74,222,128,0.16)" stroke="rgba(74,222,128,0.32)" stroke-width="2.5">
</rect>
<circle cx="850" cy="286" r="22" fill="rgba(74,222,128,0.2)" stroke="rgba(74,222,128,0.4)" stroke-width="3">
</circle>
<path d="M850 264 q-4 -12 6 -18" fill="none" stroke="rgba(74,222,128,0.35)" stroke-width="3" stroke-linecap="round">
</path>
<path d="M856 248 q10 -8 16 -2 q-4 8 -14 8 z" fill="rgba(74,222,128,0.28)">
</path>
<g>
<defs>
<radialGradient id="cg113-sh" cx="50%" cy="50%" r="50%">
<stop offset="0%" stop-color="rgba(74,222,128,0.18)">
</stop>
<stop offset="100%" stop-color="rgba(74,222,128,0)">
</stop>
</radialGradient>
</defs>
<ellipse cx="850" cy="336" rx="62" ry="8" fill="url(#cg113-sh)">
</ellipse>
</g>
<path d="M780 330 q34 -40 86 -22 l-6 26 q-30 -8 -52 14 q-20 -12 -44 -8 z" fill="rgba(74,222,128,0.12)" stroke="rgba(74,222,128,0.3)" stroke-width="3">
</path>
<line x1="824" y1="314" x2="838" y2="328" stroke="rgba(74,222,128,0.28)" stroke-width="3" stroke-linecap="round">
</line>
</g>
</g>
</g>
<rect width="960" height="540" fill="url(#vig)">
</rect>
</svg>
